ply
format ascii 1.0
element vertex 80
property float x
property float y
property float z
end_header
-3.772002 -3.256871 25.792295
-3.607520 -3.088243 25.897844
-3.607520 -3.088243 25.897844
-3.590536 -3.071451 25.896484
-3.590536 -3.071451 25.896484
-3.545043 -3.229036 25.895447
-0.526578 -1.526887 12.622832
-0.477747 -1.532165 12.667323
0.305443 0.224287 4.055404
0.305443 0.224287 4.055404
0.305443 0.224287 4.055404
0.843974 -1.012953 8.129615
0.393259 -0.337015 2.835696
0.393259 -0.337015 2.835696
0.394272 -0.341730 2.707279
0.394272 -0.341730 2.707279
0.416726 1.078499 11.297102
0.996919 -0.454228 6.920591
0.996919 -0.454228 6.920591
0.996919 -0.454228 6.920591
6.807303 -5.028914 40.330315
7.046865 -4.936248 40.347176
7.046865 -4.936248 40.347176
7.123947 -4.716950 40.345875
-2.693361 -2.317867 19.815416
-2.693361 -2.317867 19.815416
1.089667 -1.410934 11.318256
1.181547 -1.325818 11.352970
1.181547 -1.325818 11.352970
0.813320 -1.000301 7.807918
0.813320 -1.000301 7.807918
0.771146 0.725396 7.370087
1.274200 -1.420325 11.394013
0.970084 -0.790766 7.599984
-0.538429 -0.366641 3.067838
-0.538429 -0.366641 3.067838
-0.624774 -0.450124 3.608447
-0.132794 -1.147344 8.959172
-0.132794 -1.147344 8.959172
-0.131729 -1.049297 8.962926
-0.061946 -1.118942 8.973206
0.163063 -1.624174 13.025092
0.264895 -1.526654 13.047515
0.264895 -1.526654 13.047515
0.344155 -1.549391 13.057351
0.344155 -1.549391 13.057351
0.366544 -1.628162 13.057488
-7.405506 -5.365395 15.799122
-7.572859 -5.811395 16.843838
-7.633461 -6.021927 17.620296
-7.633461 -6.021927 17.620296
-7.864871 -7.453428 21.784449
-7.864871 -7.453428 21.784449
-7.864871 -7.453428 21.784449
-7.865734 -7.495998 21.923468
-7.866029 -7.780306 22.707033
-7.866029 -7.780306 22.707033
-7.854055 -7.811412 23.305950
-7.848040 -8.076768 23.613554
-7.845345 -8.055977 23.694874
-7.845345 -8.055977 23.694874
-7.826095 -8.115462 24.407520
-7.826095 -8.115462 24.407520
-7.787542 -8.599556 24.954290
-7.758369 -8.735520 25.415522
-7.139081 -10.434254 30.505239
-7.139081 -10.434254 30.505239
-6.714483 -11.135201 32.560719
-6.714483 -11.135201 32.560719
-0.937960 1.216693 7.579781
-0.468394 0.518894 11.442881
-0.468394 0.518894 11.442881
-0.339952 0.606641 8.518169
-0.339952 0.606641 8.518169
0.756883 -1.078091 8.645719
0.834245 -1.124342 8.762941
0.834245 -1.124342 8.762941
0.834978 -1.022324 8.761148
0.834978 -1.022324 8.761148
0.198272 -0.158243 1.244476
